<?xml version="1.0" encoding="UTF-8" standalone="no"?>
<svg width="31px" height="31px" viewBox="0 0 31 31" version="1.1" xmlns="http://www.w3.org/2000/svg" xmlns:xlink="http://www.w3.org/1999/xlink">
    <!-- Generator: sketchtool 39.1 (31720) - http://www.bohemiancoding.com/sketch -->
    <title>818306E0-DCB9-453F-98F2-19CBEF57EA9E</title>
    <desc>Created with sketchtool.</desc>
    <defs></defs>
    <g id="Page-1" stroke="none" stroke-width="1" fill="none" fill-rule="evenodd">
        <g id="Index" transform="translate(-1086.000000, -1667.000000)">
            <g id="Follow_US" transform="translate(920.000000, 1632.000000)">
                <rect id="Rectangle-13" fill="#FFFFFF" x="0" y="0" width="390" height="100"></rect>
                <g id="wechat" transform="translate(166.000000, 35.000000)">
                    <rect id="Rectangle-14" x="0" y="0" width="30" height="30"></rect>
                    <path d="M22.478071,17.3571968 C21.8823133,17.3571968 21.397112,16.8668043 21.397112,16.258117 C21.397112,15.6528524 21.8823386,15.1624598 22.478071,15.1624598 C23.073854,15.1624598 23.5589544,15.6528523 23.5589544,16.258117 C23.5589544,16.8668043 23.0738792,17.3571968 22.478071,17.3571968 M16.918179,17.3571968 C16.3222952,17.3571968 15.83722,16.8668043 15.83722,16.258117 C15.83722,15.6528524 16.3223204,15.1624598 16.918179,15.1624598 C17.5138358,15.1624598 17.9989362,15.6528523 17.9989362,16.258117 C17.9989362,16.8668043 17.5138358,17.3571968 16.918179,17.3571968 M27.4422306,18.9184133 C27.4422306,15.3676707 24.2934059,12.4603918 20.3025006,12.2097368 C20.1157333,12.1994937 19.9285875,12.1923985 19.7415426,12.1923985 C15.4873815,12.1923985 12.040476,15.2042065 12.040476,18.9184133 C12.040476,19.4785086 12.1202704,20.0209158 12.2690585,20.5391145 C13.0969063,23.4712515 16.1280582,25.6448028 19.7415174,25.6448028 C20.9711635,25.6448028 22.1315131,25.3941728 23.1602853,24.945527 L24.8889365,26.1315229 C24.8889365,26.1315229 25.3498109,26.4549036 25.3048414,25.8323007 L24.8163847,23.9752598 C26.4273884,22.7440945 27.4422306,20.9354957 27.4422306,18.9184133 M7.94941137,11.3542168 C7.35327516,11.3542168 6.86850283,10.8641241 6.86850283,10.2588345 C6.86850283,9.65027212 7.35330039,9.15987961 7.94941137,9.15987961 C8.54850014,9.15987961 9.03019376,9.65027212 9.03019376,10.2588345 C9.03021899,10.8640991 8.54850014,11.3542168 7.94941137,11.3542168 M14.7563367,9.15987959 C15.3524729,9.15987959 15.83722,9.65027209 15.83722,10.2588345 C15.83722,10.8641241 15.3524729,11.3542168 14.7563367,11.3542168 C14.1571974,11.3542168 13.6754281,10.8641241 13.6754281,10.2588345 C13.6754029,9.65027212 14.1571974,9.15987959 14.7563367,9.15987959 M19.7415678,11.6322783 C19.9076421,11.6322783 20.0703348,11.6394984 20.2334565,11.6465936 C19.5993914,7.88681772 15.8926622,5 11.4135526,5 C6.49095575,5 2.5,8.48865969 2.5,12.7870204 C2.5,15.1834207 3.74024498,17.3256182 5.68718252,18.7550491 L5.02879052,21.2486334 C5.02879052,21.2486334 4.80384203,22.0762973 5.65601678,21.7044994 L8.11212933,20.0208908 C9.13403749,20.3791729 10.2460865,20.5775634 11.4135526,20.5775634 C11.5139895,20.5775634 11.6107926,20.5704682 11.7078228,20.5704682 C11.5657726,20.0382041 11.4896626,19.485329 11.4896626,18.9185133 C11.4896626,14.9016866 15.192758,11.6322783 19.7415678,11.6322783" id="Shape" fill="#2ECC71"></path>
                </g>
            </g>
        </g>
    </g>
</svg>