<?xml version="1.0" encoding="UTF-8" standalone="no"?>
<svg width="30px" height="30px" viewBox="0 0 30 30" version="1.1" xmlns="http://www.w3.org/2000/svg" xmlns:xlink="http://www.w3.org/1999/xlink">
    <!-- Generator: sketchtool 39.1 (31720) - http://www.bohemiancoding.com/sketch -->
    <title>190900DD-1F5E-4189-84D0-111DE4F15DF1</title>
    <desc>Created with sketchtool.</desc>
    <defs></defs>
    <g id="Page-1" stroke="none" stroke-width="1" fill="none" fill-rule="evenodd">
        <g id="Index" transform="translate(-1142.000000, -1667.000000)">
            <g id="Follow_US" transform="translate(920.000000, 1632.000000)">
                <rect id="Rectangle-13" fill="#FFFFFF" x="0" y="0" width="390" height="100"></rect>
                <g id="weibo" transform="translate(222.000000, 35.000000)">
                    <rect id="Rectangle-15" x="0" y="0" width="30" height="30"></rect>
                    <path d="M20.0897431,14.275358 C20.0897431,14.275358 23.5361529,8.14752593 13.5683484,11.3638865 C14.817923,10.3829593 14.6160526,8.38415704 13.6354655,7.67426367 C9.98617465,5.03330594 1.06760413,13.462804 1.06760413,18.4731656 C1.06760413,21.5196203 4.34443197,25.4807969 11.811585,25.4807969 C21.2055751,25.4807969 24.1443043,20.334932 24.1443043,17.8305175 C24.1443043,14.3764859 20.0897431,14.275358 20.0897431,14.275358 L20.0897431,14.275358 Z M12.1205367,24.1626307 C7.74475854,24.5712204 3.97355332,22.4918168 3.69839231,19.5172327 C3.42017184,16.5436613 6.74313756,13.801603 11.1199537,13.3935061 C15.4957319,12.9854364 19.2669371,15.06432 19.5430815,18.038384 C19.8192532,21.0124754 16.4973256,23.7545611 12.1205367,24.1626307 L12.1205367,24.1626307 Z M10.575341,15.5396349 C8.20583692,15.9415465 6.56383085,17.9167568 6.90810305,19.9489217 C7.25136455,21.9821266 9.44975689,23.3048908 11.8192609,22.9034991 C14.187727,22.5015875 15.8297604,20.5279372 15.4864989,18.4942123 C15.1421994,16.4610348 12.944845,15.1387359 10.575341,15.5396349 L10.575341,15.5396349 Z M10.16346,21.3394512 C9.39804639,21.5499177 8.62031301,21.1515913 8.42617329,20.4493886 C8.23405505,19.7451332 8.69822017,19.0044499 9.46262304,18.7929707 C10.2280366,18.5814916 11.00577,18.9798179 11.1988717,19.6830333 C11.3920006,20.3862486 10.9288462,21.1269594 10.16346,21.3394512 L10.16346,21.3394512 Z M12.151268,19.0819585 C11.7577984,19.0819585 11.4386302,18.7631934 11.4386302,18.3689724 C11.4386302,17.9752714 11.7577984,17.6554937 12.151268,17.6554937 C12.5447375,17.6554937 12.8628677,17.9757914 12.8628677,18.3689724 C12.862895,18.7631934 12.5447375,19.0819585 12.151268,19.0819585 L12.151268,19.0819585 Z M25.9681849,6.67795521 C24.3953446,4.66325165 21.8746974,3.78961041 18.8724842,4.21820669 C18.366306,4.2900773 18.0138114,4.75975424 18.0860641,5.26739176 C18.1572787,5.77349664 18.6245306,6.12513169 19.1327576,6.05427374 C22.1057692,5.62926279 23.6986052,6.78009578 24.5111401,7.82107023 C25.5777748,9.18902036 25.8790505,11.1385587 25.2596446,12.6707767 C25.0675264,13.1455716 25.2955114,13.6865992 25.7699203,13.8785917 C25.884186,13.9247903 26.0009649,13.9468496 26.1172793,13.9468496 C26.4825854,13.9468496 26.828879,13.7281724 26.974914,13.3678341 C27.8355809,11.2402066 27.4313486,8.5520376 25.9681849,6.67795521 L25.9681849,6.67795521 Z M19.7623526,7.58394643 C19.2582231,7.6563097 18.9057559,8.12598661 18.9779812,8.63263888 C19.0502066,9.13926377 19.5164478,9.49087146 20.0246747,9.41952086 C20.8751252,9.29734629 21.5375821,9.50217481 21.9351492,10.0113724 C22.2932436,10.471306 22.3993143,11.1462767 22.1953953,11.6539416 C22.003277,12.1287365 22.2323001,12.6692441 22.705671,12.8617566 C22.8209201,12.9079552 22.9367155,12.9295219 23.05303,12.9295219 C23.4183361,12.9295219 23.7656677,12.7108447 23.9106647,12.3505064 C24.3671538,11.2232927 24.1637538,9.8568752 23.3932047,8.86927003 C22.9203255,8.26252984 21.8193538,7.28929335 19.7623526,7.58394643 L19.7623526,7.58394643 Z" id="Shape" fill="#D35400"></path>
                </g>
            </g>
        </g>
    </g>
</svg>