<?xml version="1.0" encoding="UTF-8" standalone="no"?>
<svg width="30px" height="30px" viewBox="0 0 30 30" version="1.1" xmlns="http://www.w3.org/2000/svg" xmlns:xlink="http://www.w3.org/1999/xlink">
    <!-- Generator: sketchtool 39.1 (31720) - http://www.bohemiancoding.com/sketch -->
    <title>036456B9-B99D-4EF6-90AD-D7473342BDA3</title>
    <desc>Created with sketchtool.</desc>
    <defs></defs>
    <g id="Page-1" stroke="none" stroke-width="1" fill="none" fill-rule="evenodd">
        <g id="Index" transform="translate(-1242.000000, -1667.000000)">
            <g id="Follow_US" transform="translate(920.000000, 1632.000000)">
                <rect id="Rectangle-13" fill="#FFFFFF" x="0" y="0" width="390" height="100"></rect>
                <g id="facebook" transform="translate(322.000000, 35.000000)">
                    <path d="M15.7509128,26 L5.21423111,26 C4.5434333,26 4,25.4562295 4,24.7856929 L4,5.21422169 C4,4.54351445 4.54351867,4 5.21423111,4 L24.7858543,4 C25.456396,4 26,4.54351445 26,5.21422169 L26,24.7856929 C26,25.4563148 25.4563106,26 24.7858543,26 L19.1796816,26 L19.1796816,17.4803876 L22.0393222,17.4803876 L22.4675128,14.1601434 L19.1796816,14.1601434 L19.1796816,12.0403773 C19.1796816,11.07909 19.4466178,10.4240044 20.8250911,10.4240044 L22.5832677,10.4232362 L22.5832677,7.45358317 C22.2791977,7.41312049 21.2355258,7.32271971 20.0212947,7.32271971 C17.4863823,7.32271971 15.7509128,8.87003287 15.7509128,11.7115541 L15.7509128,14.1601434 L12.8839308,14.1601434 L12.8839308,17.4803876 L15.7509128,17.4803876 L15.7509128,26 L15.7509128,26 Z" id="Facebook" fill="#4460A0"></path>
                    <rect id="Rectangle-16" x="0" y="0" width="30" height="30"></rect>
                </g>
            </g>
        </g>
    </g>
</svg>