<?xml version="1.0" ?><!DOCTYPE svg  PUBLIC '-//W3C//DTD SVG 1.1//EN'  'http://www.w3.org/Graphics/SVG/1.1/DTD/svg11.dtd'><svg version="1.1" viewBox="0 0 256 256" xml:space="preserve" xmlns="http://www.w3.org/2000/svg" xmlns:xlink="http://www.w3.org/1999/xlink"><g id="Background_1_" style="enable-background:new    ;"><g id="Background"><g><path d="M249.422,30.68c-2.721-4.986-5.816-9.537-9.793-13.521     c-3.992-3.998-8.709-7.587-13.703-10.313c-8.381-4.577-18.788-6.857-29.002-6.857H59.075c-10.444,0-20.542,2.345-29.265,6.949     c-5.022,2.65-9.588,6.146-13.502,10.126c-3.932,3.998-7.491,8.488-10.046,13.572c-4.289,8.533-6.274,18.478-6.274,28.65v137.43     c0,10.326,1.671,20.678,6.296,29.134c2.681,4.9,6.191,9.861,10.087,13.794c3.934,3.972,8.583,7.226,13.503,9.956     c8.465,4.7,18.842,6.413,29.201,6.413h137.849c10.568,0,20.399-1.523,28.982-6.401c4.739-2.692,9.879-6.113,13.687-9.966     c3.923-3.969,7.2-8.851,9.886-13.798c4.566-8.416,6.533-18.875,6.533-29.132V59.285C256.012,48.978,254.031,39.124,249.422,30.68     z" style="fill-rule:evenodd;clip-rule:evenodd;fill:#1A87DA;"/></g></g></g><g id="Shape_2_1_" style="enable-background:new    ;"><g id="Shape_2"><g><path d="M223.167,104.898c-1.377-3.091-12.063-2.461-16.321-3.203     c-11.363-1.17-22.73-2.34-34.094-3.509c-4.423-0.763-11.533-0.077-14.72-2.06c-2.128-1.324-5.234-10.036-6.483-12.89     c-5.16-11.414-10.322-22.831-15.482-34.245c-1.518-3.454-3.293-8.846-5.415-11.67c-0.66-0.878-1.801-2.673-3.737-2.135     c-2.074,0.575-2.771,2.478-3.661,4.271c-1.745,3.517-3.365,7.183-5.186,10.754c-5.237,10.855-10.475,21.713-15.712,32.567     c-1.503,3.338-4.764,11.567-7.627,13.043c-1.378,0.71-3.215,0.468-4.958,0.763c-3.279,0.355-6.56,0.712-9.839,1.067     c-10.728,1.245-21.458,2.491-32.186,3.737c-4.335,0.73-14.32,0.37-16.017,3.355c-0.909,1.601,0.327,3.493,1.068,4.424     c0.94,0.864,1.881,1.729,2.822,2.594c2.256,1.807,4.135,4.12,6.407,5.948c8.516,7.932,17.035,15.865,25.551,23.797     c2.44,2.263,4.881,4.525,7.322,6.788c1.055,0.85,2.557,1.911,3.127,3.203c0.854,1.935-1.428,11.252-1.983,13.652     c-2.288,12.075-4.577,24.153-6.864,36.229c-0.763,4.017-1.525,8.034-2.288,12.051c-0.31,1.62-0.081,3.896,0.763,4.652     c1.108,0.994,3.243,1.031,4.729,0.305c3.534-2.033,7.068-4.067,10.602-6.102c9.559-5.541,19.12-11.085,28.678-16.627     c3.076-1.779,6.153-3.559,9.229-5.339c1.767-1.071,3.344-2.144,5.797-2.593c3.76-0.689,10.677,4.403,13.118,5.872     c10.702,6.178,21.407,12.357,32.11,18.534c3.076,1.779,6.152,3.56,9.229,5.339c1.052,0.653,2.705,1.928,4.729,1.449     c3.998-0.946,1.73-9.357,0.991-12.737c-2.39-13.092-4.78-26.188-7.169-39.279c2.211-0.89,4.424-1.779,6.635-2.669     c4.232-1.813,5.492-3.582,5.492-3.582s-2.354,0.804-6.254,1.766c-2.271,0.56-4.475,1.015-6.652,1.409     c-1.035-4.854-2.336-9.591-1.738-11.72c0.747-2.656,7.774-8.328,9.992-10.297c7.931-7.474,15.865-14.949,23.796-22.424     c3.457-3.253,6.915-6.508,10.372-9.762C222.299,108.665,224.076,106.937,223.167,104.898z" style="fill-rule:evenodd;clip-rule:evenodd;fill:#FFDC45;"/></g></g></g><g id="Shape_1_1_" style="enable-background:new    ;"><g id="Shape_1"><g><path d="M178.244,160.728c0,0,4.627,0.204-14.187-0.305     c-7.567-0.082-31.401-2.047-32.567-2.136c-3.355-0.305-6.712-0.61-10.067-0.915c-1.689-0.271-3.928,0.146-4.805-0.915v-0.229     c20.717-14.021,40.876-29.002,61.703-42.939c-0.025-0.179-0.051-0.356-0.076-0.534c-1.755-0.862-4.303-0.708-6.483-1.145     c-4.616-0.923-9.481-0.926-14.491-1.754c-8.998-1.487-19.084-1.372-29.211-1.373C114,108.481,100.115,108.852,87.864,111     c-5.404,0.947-10.734,1.144-15.711,2.364c-2.064,0.506-4.3,0.358-5.873,1.296c0.025,0.051,0.051,0.102,0.076,0.153     c1.2,0.324,3.035,0.229,4.576,0.229c3.712,0.076,7.424,0.152,11.136,0.229c3.229,0.102,6.458,0.204,9.686,0.306     c3.254,0.127,6.509,0.254,9.763,0.381c2.364,0.127,4.729,0.255,7.093,0.382c5.828,0.909,12.077,0.43,17.695,1.372     c4.849,0.814,9.649,0.779,14.186,1.678c1.354,0.269,2.945,0.18,3.966,0.764v0.076c-0.471,1.133-4.035,3.067-5.187,3.813     c-4.219,2.974-8.44,5.949-12.661,8.924c-9.024,6.481-18.051,12.966-27.076,19.448c-5.669,3.966-11.339,7.933-17.008,11.898     c0.038,0.577,0.297,0.413,0.548,0.735c13.788,1.998,30.242,3.096,45.244,3.143c15.574,0.05,29.583-1.133,37.42-2.325     c6.728-1.023,12.98-1.757,19.83-3.445c3.9-0.962,6.254-1.766,6.254-1.766L178.244,160.728z" style="fill-rule:evenodd;clip-rule:evenodd;fill:#E14A00;"/></g></g></g></svg>