<?xml version="1.0" encoding="UTF-8" standalone="no"?>
<svg width="30px" height="30px" viewBox="0 0 30 30" version="1.1" xmlns="http://www.w3.org/2000/svg" xmlns:xlink="http://www.w3.org/1999/xlink">
    <!-- Generator: sketchtool 39.1 (31720) - http://www.bohemiancoding.com/sketch -->
    <title>23B82A83-7CCF-4096-B1AE-50F5483947C7</title>
    <desc>Created with sketchtool.</desc>
    <defs></defs>
    <g id="Page-1" stroke="none" stroke-width="1" fill="none" fill-rule="evenodd">
        <g id="Index" transform="translate(-1190.000000, -1667.000000)">
            <g id="Follow_US" transform="translate(920.000000, 1632.000000)">
                <rect id="Rectangle-13" fill="#FFFFFF" x="0" y="0" width="390" height="100"></rect>
                <g id="douban" transform="translate(270.000000, 35.000000)">
                    <rect id="Rectangle-15-Copy" x="0" y="0" width="30" height="30"></rect>
                    <path d="M4.63320164,4.04416004 L24.4052243,4.04416004 L24.4052243,6.32317276 L4.63320164,6.32317276 L4.63320164,4.04416004 L4.63320164,4.04416004 L4.63320164,4.04416004 Z M22.6867152,17.6102292 L22.6867152,8.70062737 L6.35159114,8.70062737 L6.35159114,17.6102292 L22.6867152,17.6102292 L22.6867152,17.6102292 L22.6867152,17.6102292 Z M8.72081984,10.9781723 L20.3421832,10.9781723 L20.3421832,15.3339075 L8.72081984,15.3339075 L8.72081984,10.9781723 L8.72081984,10.9781723 L8.72081984,10.9781723 Z M19.1529427,22.7456956 C19.8637424,21.6323287 20.5344728,20.3411107 21.156049,18.8754423 L18.7799826,17.9892207 C18.1622078,19.7259469 17.4422276,21.3139582 16.6237715,22.7456711 L12.4884097,22.7456711 C11.8024022,20.8901493 11.0293469,19.3033122 10.161641,17.9892207 L7.97623859,18.8754423 C8.87779778,20.2591818 9.60392231,21.5472684 10.161641,22.7456956 L4.07316387,22.7456956 L4.07316387,25 L24.9651425,25 L24.9651425,22.7456956 L19.1529427,22.7456956 L19.1529427,22.7456956 L19.1529427,22.7456956 Z" id="Shape" fill="#27AE60"></path>
                </g>
            </g>
        </g>
    </g>
</svg>