<?xml version="1.0" encoding="UTF-8" standalone="no"?>
<svg width="25px" height="25px" viewBox="0 0 25 25" version="1.1" xmlns="http://www.w3.org/2000/svg" xmlns:xlink="http://www.w3.org/1999/xlink">
    <!-- Generator: sketchtool 39.1 (31720) - http://www.bohemiancoding.com/sketch -->
    <title>F8656FCA-853F-4078-818A-4A919FEC4AFF</title>
    <desc>Created with sketchtool.</desc>
    <defs></defs>
    <g id="Page-1" stroke="none" stroke-width="1" fill="none" fill-rule="evenodd">
        <g id="Index" transform="translate(-939.000000, -1670.000000)">
            <g id="Follow_US" transform="translate(920.000000, 1632.000000)">
                <rect id="Rectangle-13" fill="#FFFFFF" x="0" y="0" width="390" height="100"></rect>
                <g id="eye" transform="translate(19.000000, 38.000000)">
                    <polygon id="Stroke-1" stroke-opacity="0.00784313771" stroke="#000000" stroke-width="1.33333335e-11" points="1 1 24.9999985 1 24.9999985 24.9999985 1 24.9999985"></polygon>
                    <path d="M12.9999993,5.49999973 C7.99999958,5.49999973 3.72999985,8.60999967 1.99999994,12.9999993 C3.72999985,17.3899983 7.99999958,20.4999988 12.9999993,20.4999988 C17.999999,20.4999988 22.2699991,17.3899983 23.9999986,12.9999993 C22.2699991,8.60999967 17.999999,5.49999973 12.9999993,5.49999973 L12.9999993,5.49999973 Z M12.9999993,17.999999 C10.2399992,17.999999 7.99999958,15.7599993 7.99999958,12.9999993 C7.99999958,10.2399992 10.2399992,7.99999958 12.9999993,7.99999958 C15.7599993,7.99999958 17.999999,10.2399992 17.999999,12.9999993 C17.999999,15.7599993 15.7599993,17.999999 12.9999993,17.999999 L12.9999993,17.999999 Z M12.9999993,9.99999946 C11.3399995,9.99999946 9.99999946,11.3399995 9.99999946,12.9999993 C9.99999946,14.659999 11.3399995,15.9999991 12.9999993,15.9999991 C14.659999,15.9999991 15.9999991,14.659999 15.9999991,12.9999993 C15.9999991,11.3399995 14.659999,9.99999946 12.9999993,9.99999946 L12.9999993,9.99999946 Z" id="Fill-2" fill="#AF8E4F"></path>
                </g>
            </g>
        </g>
    </g>
</svg>